<svg width="396" height="236" viewBox="0 0 396 236" fill="none" xmlns="http://www.w3.org/2000/svg">
<path d="M141.708 48.3947L248.39 42.8037L257.708 220.607L151.026 226.198L141.708 48.3947ZM179.132 82.0918L184.723 188.774L220.284 186.91L214.693 80.2281L179.132 82.0918Z" fill="#FEA05B"/>
<path d="M290.957 109.949L363.547 1.80194L389.561 0.438599L316.971 108.586L290.957 109.949ZM285.504 5.892L327.127 3.71066L329.308 45.3335L287.685 47.5149L285.504 5.892ZM296.455 15.7524L297.545 36.5638L318.357 35.4731L317.266 14.6617L296.455 15.7524ZM351.21 65.0543L392.833 62.8729L395.014 104.496L353.391 106.677L351.21 65.0543ZM362.161 74.9146L363.252 95.7261L384.063 94.6354L382.973 73.824L362.161 74.9146Z" fill="#FEA05B"/>
<path d="M0.92627 57.2819L107.608 51.6909L116.927 229.495L10.2446 235.086L5.58542 146.184L0.92627 57.2819ZM2.64803 90.1352L8.45341 200.908L79.5023 195.797L74.9263 163.408H39.4263L35.4263 127.908L74.9263 124.908L73.4263 84.2423L2.64803 90.1352Z" fill="#FEA05B"/>
</svg>
