<svg width="402" height="236" viewBox="0 0 402 236" fill="none" xmlns="http://www.w3.org/2000/svg">
<path d="M74.8409 123.531L72.9773 87.9704L37.4166 89.8341L39.2802 125.395L74.8409 123.531ZM81.5 232.5V236L74.8409 123.531L3.7195 127.258L-0.0078125 56.137L106.674 50.546L110.402 121.667L112.265 157.228L115.993 228.35L81.5 232.5Z" fill="#00A3C4"/>
<path d="M147.482 48.4074L254.164 42.8164L263.483 220.62L156.801 226.211L147.482 48.4074ZM184.907 82.1044L190.498 188.787L226.058 186.923L220.467 80.2408L184.907 82.1044Z" fill="#00A3C4"/>
<path d="M296.957 109.95L369.547 1.8028L395.561 0.439453L322.971 108.587L296.957 109.95ZM291.504 5.89286L333.127 3.7115L335.308 45.3344L293.685 47.5157L291.504 5.89286ZM302.455 15.7532L303.545 36.5647L324.357 35.474L323.266 14.6626L302.455 15.7532ZM357.21 65.0551L398.833 62.8738L401.014 104.497L359.391 106.678L357.21 65.0551ZM368.161 74.9155L369.252 95.727L390.063 94.6363L388.973 73.8248L368.161 74.9155Z" fill="#00A3C4"/>
</svg>
