<svg width="61" height="59" viewBox="0 0 61 59" fill="none" xmlns="http://www.w3.org/2000/svg">
<rect width="61" height="59" fill="#152B4A"/>
<path d="M47.4097 14.7426C46.8097 14.2338 45.8673 14.161 44.8929 14.5522H44.8913C43.8665 14.9634 15.8825 26.9666 14.7433 27.457C14.5361 27.529 12.7265 28.2042 12.9129 29.7082C13.0793 31.0642 14.5337 31.6258 14.7113 31.6906L21.8257 34.1266C22.2977 35.6978 24.0377 41.4946 24.4225 42.733C24.6625 43.505 25.0537 44.5194 25.7393 44.7282C26.3409 44.9602 26.9393 44.7482 27.3265 44.4442L31.6761 40.4098L38.6977 45.8858L38.8649 45.9858C39.3417 46.197 39.7985 46.3026 40.2345 46.3026C40.5713 46.3026 40.8945 46.2394 41.2033 46.113C42.2553 45.681 42.6761 44.6786 42.7201 44.565L47.9649 17.3034C48.2849 15.8474 47.8401 15.1066 47.4097 14.7426ZM28.1001 35.101L25.7001 41.501L23.3001 33.501L41.7001 19.901L28.1001 35.101Z" fill="white"/>
</svg>
