<svg width="59" height="59" viewBox="0 0 59 59" fill="none" xmlns="http://www.w3.org/2000/svg">
<rect width="59" height="59" fill="#152B4A"/>
<path d="M46.8333 18.7487C45.5573 19.3154 44.1866 19.6967 42.748 19.8687C44.2173 18.9887 45.344 17.5954 45.8746 15.9341C44.5013 16.7487 42.9786 17.3407 41.3573 17.6607C40.0599 16.2781 38.212 15.4141 36.1666 15.4141C32.2386 15.4141 29.0546 18.5994 29.0546 22.5261C29.0546 23.0834 29.1186 23.6274 29.2386 24.1461C23.328 23.8501 18.088 21.0181 14.5786 16.7141C13.9679 17.7647 13.6173 18.9861 13.6173 20.2914C13.6173 22.7581 14.8719 24.9354 16.78 26.2101C15.6146 26.1727 14.5173 25.8527 13.5586 25.3207C13.5586 25.3514 13.5586 25.3794 13.5586 25.4101C13.5586 28.8567 16.0093 31.7314 19.2639 32.3834C18.6679 32.5461 18.0386 32.6327 17.3893 32.6327C16.9319 32.6327 16.4853 32.5874 16.0519 32.5061C16.9573 35.3314 19.584 37.3887 22.696 37.4461C20.2626 39.3541 17.196 40.4914 13.8626 40.4914C13.2893 40.4914 12.7226 40.4581 12.1653 40.3914C15.3133 42.4087 19.0506 43.5861 23.068 43.5861C36.1506 43.5861 43.3026 32.7487 43.3026 23.3501C43.3026 23.0421 43.2959 22.7354 43.2826 22.4301C44.6733 21.4261 45.88 20.1741 46.8333 18.7487Z" fill="white"/>
</svg>
